<svg width="219" height="48" viewBox="0 0 219 48" fill="none" xmlns="http://www.w3.org/2000/svg">
<g filter="url(#filter0_iii_3046_38743)">
<g clip-path="url(#clip0_3046_38743)">
<rect width="48" height="48" rx="12" fill="#0A0A0A"/>
<rect width="48" height="48" fill="url(#paint0_linear_3046_38743)"/>
<g filter="url(#filter1_d_3046_38743)">
<path fill-rule="evenodd" clip-rule="evenodd" d="M24.036 22.2674L33.1697 13.1337L31.4019 11.3659L25.2859 17.482V6.49976H22.7861V17.482L16.6701 11.3659L14.9023 13.1337L24.036 22.2674ZM25.8018 24.0347L34.9355 14.901L36.7033 16.6688L30.5872 22.7848H41.5004V25.2846H30.5872L36.7033 31.4006L34.9355 33.1684L25.8018 24.0347ZM13.1345 33.1684L22.2682 24.0347L13.1345 14.901L11.3668 16.6688L17.4828 22.7848H6.50195V25.2846H17.4828L11.3668 31.4006L13.1345 33.1684ZM24.036 25.802L14.9023 34.9357L16.6701 36.7035L22.7854 30.5881V41.4999L24.036 41.5006L25.2866 41.4999L25.2859 30.5874L31.4019 36.7035L33.1697 34.9357L24.036 25.802Z" fill="url(#paint1_linear_3046_38743)"/>
</g>
</g>
<rect x="1" y="1" width="46" height="46" rx="11" stroke="url(#paint2_linear_3046_38743)" stroke-width="2"/>
</g>
<path d="M93.2604 32.9961C93.5816 32.1182 93.7495 31.1386 93.7495 30.084C93.7495 25.791 90.9685 22.74 86.3785 22.74C81.7615 22.74 78.9805 25.791 78.9805 30.084C78.9805 31.1386 79.1483 32.1182 79.4699 32.9961H84.0182C83.5534 32.3088 83.3005 31.3317 83.3005 30.084C83.3005 27.411 84.4615 25.98 86.3785 25.98C88.2685 25.98 89.4295 27.411 89.4295 30.084C89.4295 31.3317 89.1765 32.3088 88.7145 32.9961H93.2604Z" fill="#0A0A0A"/>
<path d="M69.6921 17.2319C72.2571 17.2319 73.2291 18.7709 73.5801 20.8769H78.4401C77.9811 16.3949 75.1731 13.2629 69.9081 13.2629C63.8061 13.2629 60.5391 17.5289 60.5391 23.3339C60.5391 29.1659 63.8061 33.4319 69.9081 33.4319C75.2001 33.4319 78.0081 30.2999 78.4401 25.7639H73.5801C73.2561 27.9239 72.2841 29.4629 69.6921 29.4629C66.4791 29.4629 65.3991 26.9789 65.3991 23.3339C65.3991 19.7159 66.4791 17.2319 69.6921 17.2319Z" fill="#0A0A0A"/>
<path d="M108.09 23.6579C108.09 20.4989 106.281 18.7439 103.608 18.7439C101.151 18.7439 99.8006 19.9049 99.0716 21.1739H99.0176V18.93H94.6976V32.9999H99.0176V25.0079C99.0176 23.0909 99.9626 22.2539 101.61 22.2539C103.041 22.2539 103.77 22.9559 103.77 25.0349V32.9999H108.09V23.6579Z" fill="#0A0A0A"/>
<path d="M108.158 19.1759H112.478L115.286 28.1939H115.34L118.148 19.1759H122.468L117.689 32.9999H112.937L108.158 19.1759Z" fill="#0A0A0A"/>
<path fill-rule="evenodd" clip-rule="evenodd" d="M131.292 29.22C130.926 29.7442 130.239 30.1919 129.053 30.1919C127.514 30.1919 126.083 29.1659 126.083 27.2219H130V27.22H136V27.2219H136.019C136.019 22.1999 133.616 18.7439 128.891 18.7439C124.49 18.7439 121.763 21.8759 121.763 26.0879C121.763 30.4079 124.544 33.4319 129.134 33.4319C132.702 33.4319 134.83 31.7728 135.681 29.22H131.292ZM126.083 24.6029C126.083 22.6859 127.244 21.7139 128.891 21.7139C130.538 21.7139 131.699 22.6859 131.699 24.6029H126.083Z" fill="#0A0A0A"/>
<path d="M144.702 18.9329C145.08 18.9329 145.404 18.9329 145.89 19.0409V22.8209H145.836C143.622 22.4159 141.273 23.6309 141.273 26.5739V32.9999H136.953V18.93H141.273V21.4439H141.327C142.002 19.9049 143.19 18.9329 144.702 18.9329Z" fill="#0A0A0A"/>
<path fill-rule="evenodd" clip-rule="evenodd" d="M159.823 18.93H155.503V20.5529H155.449C154.909 19.8239 153.694 18.7439 151.669 18.7439C148.132 18.7439 145.864 21.5519 145.864 25.5479C145.864 29.5439 148.132 32.3519 151.669 32.3519C153.694 32.3519 154.909 31.2719 155.449 30.5429H155.503V31.3529C155.503 33.6479 154.855 34.6739 152.911 34.6739C151.399 34.6739 150.724 34.0529 150.454 33.2969H146.134C146.62 35.5109 148.645 37.7789 153.019 37.7789C157.204 37.7789 159.823 36.2129 159.823 31.6499V18.93ZM155.422 25.5479C155.422 27.7889 154.558 29.1119 152.803 29.1119C151.048 29.1119 150.184 27.7889 150.184 25.5479C150.184 23.3069 151.048 21.9839 152.803 21.9839C154.558 21.9839 155.422 23.3069 155.422 25.5479Z" fill="#0A0A0A"/>
<path fill-rule="evenodd" clip-rule="evenodd" d="M168.065 30.1919C169.251 30.1919 169.938 29.7442 170.304 29.22H174.693C173.842 31.7728 171.714 33.4319 168.146 33.4319C163.556 33.4319 160.775 30.4079 160.775 26.0879C160.775 21.8759 163.502 18.7439 167.903 18.7439C172.628 18.7439 175.031 22.1999 175.031 27.2219H175V27.22H169V27.2219H165.095C165.095 29.1659 166.526 30.1919 168.065 30.1919ZM167.903 21.7139C166.256 21.7139 165.095 22.6859 165.095 24.6029H170.711C170.711 22.6859 169.55 21.7139 167.903 21.7139Z" fill="#0A0A0A"/>
<path d="M189.356 23.6579C189.356 20.4989 187.547 18.7439 184.874 18.7439C182.417 18.7439 181.067 19.9049 180.338 21.1739H180.284V18.93H175.964V32.9999H180.284V25.0079C180.284 23.0909 181.229 22.2539 182.876 22.2539C184.307 22.2539 185.036 22.9559 185.036 25.0349V32.9999H189.356V23.6579Z" fill="#0A0A0A"/>
<path d="M199.76 24.3329C199.625 23.2259 199.031 21.9839 197.303 21.9839C195.521 21.9839 194.522 23.4959 194.522 26.0879C194.522 28.6799 195.494 30.1919 197.303 30.1919C199.031 30.1919 199.625 29.0309 199.76 27.7889H203.999C203.783 31.0559 201.299 33.4319 197.33 33.4319C192.956 33.4319 190.202 30.4079 190.202 26.0879C190.202 21.7949 192.956 18.7439 197.222 18.7439C201.245 18.7439 203.648 21.1199 203.999 24.3329H199.76Z" fill="#0A0A0A"/>
<path fill-rule="evenodd" clip-rule="evenodd" d="M213.772 29.22C213.406 29.7442 212.719 30.1919 211.533 30.1919C209.994 30.1919 208.563 29.1659 208.563 27.2219H213V27.22H218.499C218.498 22.199 216.095 18.7439 211.371 18.7439C206.97 18.7439 204.243 21.8759 204.243 26.0879C204.243 30.4079 207.024 33.4319 211.614 33.4319C215.182 33.4319 217.31 31.7728 218.161 29.22H213.772ZM208.563 24.6029C208.563 22.6859 209.724 21.7139 211.371 21.7139C213.018 21.7139 214.179 22.6859 214.179 24.6029H208.563Z" fill="#0A0A0A"/>
<defs>
<filter id="filter0_iii_3046_38743" x="0" y="-3" width="48" height="54" filterUnits="userSpaceOnUse" color-interpolation-filters="sRGB">
<feFlood flood-opacity="0" result="BackgroundImageFix"/>
<feBlend mode="normal" in="SourceGraphic" in2="BackgroundImageFix" result="shape"/>
<feColorMatrix in="SourceAlpha" type="matrix" values="0 0 0 0 0 0 0 0 0 0 0 0 0 0 0 0 0 0 127 0" result="hardAlpha"/>
<feOffset dy="-3"/>
<feGaussianBlur stdDeviation="1.5"/>
<feComposite in2="hardAlpha" operator="arithmetic" k2="-1" k3="1"/>
<feColorMatrix type="matrix" values="0 0 0 0 0 0 0 0 0 0 0 0 0 0 0 0 0 0 0.1 0"/>
<feBlend mode="normal" in2="shape" result="effect1_innerShadow_3046_38743"/>
<feColorMatrix in="SourceAlpha" type="matrix" values="0 0 0 0 0 0 0 0 0 0 0 0 0 0 0 0 0 0 127 0" result="hardAlpha"/>
<feOffset dy="3"/>
<feGaussianBlur stdDeviation="1.5"/>
<feComposite in2="hardAlpha" operator="arithmetic" k2="-1" k3="1"/>
<feColorMatrix type="matrix" values="0 0 0 0 1 0 0 0 0 1 0 0 0 0 1 0 0 0 0.1 0"/>
<feBlend mode="normal" in2="effect1_innerShadow_3046_38743" result="effect2_innerShadow_3046_38743"/>
<feColorMatrix in="SourceAlpha" type="matrix" values="0 0 0 0 0 0 0 0 0 0 0 0 0 0 0 0 0 0 127 0" result="hardAlpha"/>
<feMorphology radius="1" operator="erode" in="SourceAlpha" result="effect3_innerShadow_3046_38743"/>
<feOffset/>
<feComposite in2="hardAlpha" operator="arithmetic" k2="-1" k3="1"/>
<feColorMatrix type="matrix" values="0 0 0 0 0 0 0 0 0 0 0 0 0 0 0 0 0 0 0.2 0"/>
<feBlend mode="normal" in2="effect2_innerShadow_3046_38743" result="effect3_innerShadow_3046_38743"/>
</filter>
<filter id="filter1_d_3046_38743" x="3.16667" y="3.16667" width="41.6667" height="46.6667" filterUnits="userSpaceOnUse" color-interpolation-filters="sRGB">
<feFlood flood-opacity="0" result="BackgroundImageFix"/>
<feColorMatrix in="SourceAlpha" type="matrix" values="0 0 0 0 0 0 0 0 0 0 0 0 0 0 0 0 0 0 127 0" result="hardAlpha"/>
<feMorphology radius="1.66667" operator="erode" in="SourceAlpha" result="effect1_dropShadow_3046_38743"/>
<feOffset dy="2.5"/>
<feGaussianBlur stdDeviation="2.5"/>
<feComposite in2="hardAlpha" operator="out"/>
<feColorMatrix type="matrix" values="0 0 0 0 0.141176 0 0 0 0 0.141176 0 0 0 0 0.141176 0 0 0 0.1 0"/>
<feBlend mode="normal" in2="BackgroundImageFix" result="effect1_dropShadow_3046_38743"/>
<feBlend mode="normal" in="SourceGraphic" in2="effect1_dropShadow_3046_38743" result="shape"/>
</filter>
<linearGradient id="paint0_linear_3046_38743" x1="24" y1="5.96047e-07" x2="26" y2="48" gradientUnits="userSpaceOnUse">
<stop stop-color="white" stop-opacity="0"/>
<stop offset="1" stop-color="white" stop-opacity="0.12"/>
</linearGradient>
<linearGradient id="paint1_linear_3046_38743" x1="24.0012" y1="6.49976" x2="24.0012" y2="41.5006" gradientUnits="userSpaceOnUse">
<stop stop-color="white" stop-opacity="0.8"/>
<stop offset="1" stop-color="white" stop-opacity="0.5"/>
</linearGradient>
<linearGradient id="paint2_linear_3046_38743" x1="24" y1="0" x2="24" y2="48" gradientUnits="userSpaceOnUse">
<stop stop-color="white" stop-opacity="0.12"/>
<stop offset="1" stop-color="white" stop-opacity="0"/>
</linearGradient>
<clipPath id="clip0_3046_38743">
<rect width="48" height="48" rx="12" fill="white"/>
</clipPath>
</defs>
</svg>